#!OML:ASF E:\Steps\Project 1\Capture day 1\Session 2\Subject.ASF
:FULLY-SPECIFIED
:DEGREES
172
root 1.09039 17.979 19.0496 -153.293 -14.7141 178.334
lowerback -22.4515 -6.00726 -14.3369
upperback -0.651818 -4.56498 -0.889039
thorax 12.9475 -3.13022 5.52847
lowerneck -2.10891 -4.10731 -1.33376
upperneck 24.086 -9.84065 7.1251
head 8.22846 -5.05775 1.70558
rclavicle -2.82274e-014 0
rhumerus -50.9243 -28.0557 -67.5065
rradius 28.0067
rwrist 0.0127946
rhand -8.49664 -55.2663
rfingers 7.12502
rthumb 17.4309 -84.5047
lclavicle -2.82274e-014 0
lhumerus -27.7979 -4.61132 72.7744
lradius 28.4056
lwrist 2.78574
lhand -22.6945 -11.9068
lfingers 7.12502
lthumb 3.73812 18.0402
rfemur -29.5449 8.49895 2.78872
rtibia 6.69922
rfoot -0.784872 -22.5636
rtoes -5.47484
lfemur -43.7761 -19.8689 -7.3042
ltibia 54.2621
lfoot -34.9523 -4.36041
ltoes -14.341
173
root 1.15054 17.9333 19.0015 -152.952 -14.8851 177.899
lowerback -22.5322 -6.06105 -14.4705
upperback -0.673939 -4.58984 -1.00305
thorax 12.9707 -3.15034 5.4557
lowerneck -2.18602 -4.22105 -1.27005
upperneck 24.2345 -9.98347 6.91542
head 8.28691 -5.13096 1.60909
rclavicle -1.82882e-014 -7.15625e-014
rhumerus -51.0873 -28.1454 -67.2848
rradius 27.929
rwrist -0.0929127
rhand -8.3737 -54.7539
rfingers 7.12502
rthumb 17.5492 -83.9819
lclavicle -1.82882e-014 -7.15625e-014
lhumerus -27.73 -4.58564 72.6114
lradius 28.4979
lwrist 2.56911
lhand -22.5327 -12.0324
lfingers 7.12502
lthumb 3.89432 17.9118
rfemur -29.5511 7.71812 3.03214
rtibia 6.99768
rfoot -1.05505 -21.7467
rtoes -9.82731
lfemur -44.1364 -20.0717 -7.33392
ltibia 54.6391
lfoot -35.2525 -3.58195
ltoes -19.4702
174
root 1.2151 17.8879 18.9552 -152.692 -15.0646 177.527
lowerback -22.4602 -6.08176 -14.5649
upperback -0.686183 -4.60417 -1.08661
thorax 12.9184 -3.15903 5.41036
lowerneck -2.36339 -4.23611 -1.27906
upperneck 24.3299 -9.96216 6.77541
head 8.34336 -5.11815 1.55933
rclavicle -2.38542e-015 3.49861e-014
rhumerus -51.1218 -28.0431 -67.2216
rradius 27.8224
rwrist -0.340706
rhand -6.94745 -54.6396
rfingers 7.12502
rthumb 18.9214 -83.7393
lclavicle -2.38542e-015 3.49861e-014
lhumerus -27.6065 -4.48043 72.5142
lradius 28.5356
lwrist 2.30077
lhand -22.6024 -11.8354
lfingers 7.12502
lthumb 3.82705 18.11
rfemur -29.4779 7.00035 3.3895
rtibia 7.20962
rfoot -1.65239 -21.3153
rtoes -11.446
lfemur -44.4627 -20.2474 -7.27401
ltibia 55.0075
lfoot -35.4419 -3.78018
ltoes -20.1536
175
root 1.28094 17.8433 18.9114 -152.498 -15.2596 177.258
lowerback -22.3202 -6.03692 -14.4924
upperback -0.699333 -4.58222 -1.21657
thorax 12.8012 -3.13615 5.23776
lowerneck -2.42014 -4.18099 -1.29811
upperneck 24.2743 -9.88134 6.89199
head 8.3375 -5.06468 1.60742
rclavicle -1.47101e-014 -2.70347e-014
rhumerus -51.341 -27.9264 -67.355
rradius 27.9732
rwrist -0.57967
rhand -6.59533 -55.1489
rfingers 7.12502
rthumb 19.26 -84.2151
lclavicle -1.47101e-014 -2.70347e-014
lhumerus -27.4821 -4.63017 72.4165
lradius 28.635
lwrist 2.26793
lhand -22.8337 -11.5664
lfingers 7.12502
lthumb 3.60369 18.3829
rfemur -29.3524 6.43406 3.87442
rtibia 7.2975
rfoot -2.86518 -21.4107
rtoes -11.1879
lfemur -44.7915 -20.42 -7.08471
ltibia 55.4154
lfoot -35.5642 -4.31098
ltoes -18.9488
176
root 1.34403 17.8025 18.8715 -152.324 -15.3863 176.943
lowerback -22.1415 -5.98072 -14.3982
upperback -0.701849 -4.55462 -1.3622
thorax 12.671 -3.10879 5.03972
lowerneck -2.33489 -4.16706 -1.39894
upperneck 24.1359 -9.84786 7.03176
head 8.28442 -5.04494 1.67883
rclavicle 0 -1.36764e-013
rhumerus -51.4703 -27.8212 -67.4583
rradius 28.1127
rwrist -0.754425
rhand -7.03892 -55.3868
rfingers 7.12502
rthumb 18.8334 -84.4951
lclavicle 0 -1.36764e-013
lhumerus -27.4141 -4.62733 72.2868
lradius 28.7233
lwrist 2.16338
lhand -23.1089 -11.6368
lfingers 7.12502
lthumb 3.3379 18.3168
rfemur -29.1776 5.76616 4.3401
rtibia 7.29559
rfoot -4.43104 -21.3365
rtoes -11.7372
lfemur -45.0828 -20.601 -7.01059
ltibia 55.8494
lfoot -35.7208 -3.82045
ltoes -22.1436
177
root 1.40633 17.7661 18.8332 -152.181 -15.4426 176.583
lowerback -21.9609 -5.94195 -14.3717
upperback -0.648054 -4.52444 -1.49199
thorax 12.614 -3.08885 4.89537
lowerneck -2.22846 -4.10584 -1.45086
upperneck 23.8986 -9.6917 7.06897
head 8.17948 -4.9678 1.72129
rclavicle 5.1684e-015 -7.4743e-014
rhumerus -51.4292 -27.9016 -67.3777
rradius 28.0748
rwrist -0.679314
rhand -6.81561 -55.2365
rfingers 7.12502
rthumb 19.0482 -84.3238
lclavicle 5.1684e-015 -7.4743e-014
lhumerus -27.2666 -4.31025 72.1167
lradius 28.7492
lwrist 1.87186
lhand -23.1682 -11.708
lfingers 7.12502
lthumb 3.28071 18.2465
rfemur -28.9367 5.1492 4.73462
rtibia 7.22616
rfoot -6.03751 -21.3349
rtoes -11.8213
lfemur -45.2817 -20.7472 -7.04526
ltibia 56.2078
lfoot -35.8096 -3.23177
ltoes -25.3166
178
root 1.46757 17.7297 18.7961 -152.007 -15.4812 176.329
lowerback -21.8222 -5.93142 -14.2754
upperback -0.616474 -4.54835 -1.56206
thorax 12.5649 -3.0904 4.76061
lowerneck -2.17564 -4.03535 -1.40812
upperneck 23.6607 -9.50732 7.01776
head 8.07452 -4.87389 1.71901
rclavicle 0 6.04305e-014
rhumerus -51.4475 -27.9044 -67.3484
rradius 28.1657
rwrist -0.484453
rhand -6.5196 -55.4683
rfingers 7.12502
rthumb 19.3328 -84.5273
lclavicle 0 6.04305e-014
lhumerus -27.1723 -3.86917 71.9484
lradius 28.8464
lwrist 1.62426
lhand -23.311 -11.5538
lfingers 7.12502
lthumb 3.14276 18.4028
rfemur -28.8348 4.7479 5.13552
rtibia 7.14319
rfoot -7.45276 -21.5939
rtoes -11.5226
lfemur -45.5549 -20.8204 -6.95091
ltibia 56.6066
lfoot -35.8697 -3.33461
ltoes -24.7422
179
root 1.52836 17.6933 18.764 -151.765 -15.4531 176.168
lowerback -21.6845 -5.88018 -14.0692
upperback -0.652985 -4.55724 -1.61184
thorax 12.4247 -3.07391 4.59894
lowerneck -2.13928 -3.98367 -1.50221
upperneck 23.4576 -9.39843 7.14609
head 8.00332 -4.81521 1.79044
rclavicle -2.78299e-015 6.36111e-015
rhumerus -51.5061 -27.7572 -67.385
rradius 28.2908
rwrist -0.379107
rhand -6.40308 -55.5093
rfingers 7.12502
rthumb 19.4448 -84.5571
lclavicle -2.78299e-015 6.36111e-015
lhumerus -27.2114 -3.58125 71.8357
lradius 28.9859
lwrist 1.64048
lhand -23.695 -11.6062
lfingers 7.12502
lthumb 2.77188 18.3555
rfemur -29.0114 4.49768 5.54766
rtibia 7.22393
rfoot -8.53699 -21.7996
rtoes -11.2469
lfemur -45.9703 -20.7494 -6.7637
ltibia 57.1264
lfoot -35.9369 -3.65954
ltoes -23.1176
180
root 1.59004 17.6593 18.7353 -151.561 -15.3601 176.045
lowerback -21.5817 -5.79392 -13.9026
upperback -0.623858 -4.49233 -1.60442
thorax 12.3768 -3.03067 4.54534
lowerneck -2.18466 -3.93975 -1.71398
upperneck 23.2714 -9.29401 7.32349
head 7.95974 -4.75762 1.89448
rclavicle 4.01545e-014 -3.18055e-015
rhumerus -51.4718 -27.7019 -67.2985
rradius 28.3883
rwrist -0.273939
rhand -6.2606 -55.5713
rfingers 7.12502
rthumb 19.5818 -84.6051
lclavicle 4.01545e-014 -3.18055e-015
lhumerus -27.1373 -3.20696 71.8521
lradius 29.1197
lwrist 1.68046
lhand -23.643 -11.793
lfingers 7.12502
lthumb 2.82213 18.1681
rfemur -29.369 4.24581 5.98342
rtibia 7.61223
rfoot -9.34202 -21.832
rtoes -10.0738
lfemur -46.3428 -20.5911 -6.57513
ltibia 57.6176
lfoot -35.9407 -3.83259
ltoes -22.5134
181
root 1.65345 17.6332 18.7109 -151.498 -15.1797 175.949
lowerback -21.313 -5.6607 -13.8006
upperback -0.523354 -4.36267 -1.56414
thorax 12.3171 -2.96073 4.59506
lowerneck -2.42438 -3.99253 -1.77729
upperneck 23.2876 -9.31434 7.24673
head 8.00825 -4.75789 1.87116
rclavicle -7.15625e-015 -4.13472e-014
rhumerus -51.3616 -27.7603 -67.1554
rradius 28.5654
rwrist -0.0982705
rhand -6.36984 -55.9651
rfingers 7.12502
rthumb 19.4768 -85.0096
lclavicle -7.15625e-015 -4.13472e-014
lhumerus -26.9305 -2.63373 71.9182
lradius 29.2392
lwrist 1.42718
lhand -23.4728 -11.8826
lfingers 7.12502
lthumb 2.98652 18.0763
rfemur -29.711 4.11398 6.3886
rtibia 8.1063
rfoot -9.83574 -21.811
rtoes -10.2051
lfemur -46.4655 -20.4072 -6.41641
ltibia 57.9068
lfoot -35.8017 -3.98388
ltoes -21.8182
182
root 1.71452 17.6114 18.6882 -151.448 -14.9781 175.803
lowerback -20.8604 -5.53247 -13.6635
upperback -0.495758 -4.28872 -1.57412
thorax 12.0709 -2.90496 4.56341
lowerneck -2.48965 -4.04115 -1.66654
upperneck 23.2814 -9.3195 7.00648
head 8.00185 -4.76129 1.77198
rclavicle 2.78299e-015 6.04305e-014
rhumerus -51.182 -27.6338 -67.1289
rradius 28.6607
rwrist -0.148665
rhand -7.19653 -55.3972
rfingers 7.12502
rthumb 18.6818 -84.5202
lclavicle 2.78299e-015 6.04305e-014
lhumerus -26.926 -2.24176 71.9436
lradius 29.315
lwrist 1.31726
lhand -23.7884 -12.0595
lfingers 7.12502
lthumb 2.68172 17.9034
rfemur -29.9751 4.08112 6.66292
rtibia 8.56534
rfoot -10.5574 -21.7345
rtoes -10.0767
lfemur -46.5315 -20.3026 -6.3173
ltibia 58.111
lfoot -35.684 -4.0279
ltoes -21.4843
183
root 1.77085 17.5832 18.6579 -151.311 -14.769 175.594
lowerback -20.6285 -5.47726 -13.533
upperback -0.487932 -4.27932 -1.59918
thorax 11.9362 -2.88566 4.48145
lowerneck -2.38744 -3.9257 -1.6865
upperneck 23.1139 -9.09187 6.93637
head 7.91178 -4.6594 1.77746
rclavicle 5.56597e-014 -2.54444e-014
rhumerus -50.9353 -27.1474 -67.3415
rradius 28.7809
rwrist -0.44184
rhand -8.1622 -54.1849
rfingers 7.12502
rthumb 17.7528 -83.3945
lclavicle 5.56597e-014 -2.54444e-014
lhumerus -27.1274 -2.05115 71.9771
lradius 29.4453
lwrist 1.67936
lhand -23.9683 -12.2171
lfingers 7.12502
lthumb 2.50795 17.7479
rfemur -30.2691 3.77365 6.90413
rtibia 9.11797
rfoot -11.5208 -21.2738
rtoes -8.41583
lfemur -46.6373 -20.3266 -6.28343
ltibia 58.3499
lfoot -35.7152 -3.78993
ltoes -22.432
184
root 1.82542 17.5543 18.6301 -151.131 -14.3608 175.311
lowerback -20.5526 -5.35837 -13.481
upperback -0.432322 -4.13268 -1.71613
thorax 11.9169 -2.81344 4.37155
lowerneck -2.32391 -3.8088 -1.70018
upperneck 22.8185 -8.8581 6.99999
head 7.79193 -4.53795 1.82629
rclavicle 2.18663e-014 -3.18055e-014
rhumerus -50.7145 -26.8002 -67.6507
rradius 29.0487
rwrist -0.496547
rhand -8.40126 -53.7233
rfingers 7.12502
rthumb 17.5227 -82.9536
lclavicle 2.18663e-014 -3.18055e-014
lhumerus -27.1881 -1.91048 71.9483
lradius 29.5645
lwrist 1.96009
lhand -23.8568 -12.2873
lfingers 7.12502
lthumb 2.61561 17.6764
rfemur -30.6758 3.42462 6.98987
rtibia 9.66962
rfoot -12.1406 -20.7142
rtoes -8.38536
lfemur -46.6724 -20.2239 -6.43589
ltibia 58.5509
lfoot -35.8016 -3.13425
ltoes -25.3675
185
root 1.87986 17.5327 18.6138 -151.015 -13.8667 175.033
lowerback -20.2337 -5.1843 -13.442
upperback -0.405544 -3.95208 -1.84007
thorax 11.7221 -2.71741 4.28927
lowerneck -2.36898 -3.76691 -1.63282
upperneck 22.6414 -8.7317 6.93743
head 7.72856 -4.46693 1.80636
rclavicle -4.92986e-014 1.74931e-014
rhumerus -50.4994 -26.7092 -67.7178
rradius 29.1694
rwrist -0.387669
rhand -8.21405 -53.3808
rfingers 7.12502
rthumb 17.7029 -82.5949
lclavicle -4.92986e-014 1.74931e-014
lhumerus -27.2847 -1.84682 71.96
lradius 29.692
lwrist 2.0084
lhand -23.9993 -12.4727
lfingers 7.12502
lthumb 2.47804 17.4926
rfemur -31.1048 3.23897 6.97497
rtibia 10.1749
rfoot -12.5064 -20.3567
rtoes -9.65804
lfemur -46.6348 -20.0453 -6.62917
ltibia 58.6635
lfoot -35.7885 -2.69076
ltoes -27.2318
